# Blender 4.1.1
# www.blender.org
mtllib flasche.mtl
o Cylinder
v 0.000000 -1.000000 -0.437074
v 0.000000 1.000000 -0.437074
v 0.167261 -1.000000 -0.403804
v 0.167261 1.000000 -0.403804
v 0.309058 -1.000000 -0.309058
v 0.309058 1.000000 -0.309058
v 0.403804 -1.000000 -0.167261
v 0.403804 1.000000 -0.167261
v 0.437074 -1.000000 0.000000
v 0.437074 1.000000 0.000000
v 0.403804 -1.000000 0.167261
v 0.403804 1.000000 0.167261
v 0.309058 -1.000000 0.309058
v 0.309058 1.000000 0.309058
v 0.167261 -1.000000 0.403804
v 0.167261 1.000000 0.403804
v 0.000000 -1.000000 0.437074
v 0.000000 1.000000 0.437074
v -0.167261 -1.000000 0.403804
v -0.167261 1.000000 0.403804
v -0.309058 -1.000000 0.309058
v -0.309058 1.000000 0.309058
v -0.403804 -1.000000 0.167261
v -0.403804 1.000000 0.167261
v -0.437074 -1.000000 0.000000
v -0.437074 1.000000 0.000000
v -0.403804 -1.000000 -0.167261
v -0.403804 1.000000 -0.167261
v -0.309058 -1.000000 -0.309058
v -0.309058 1.000000 -0.309058
v -0.167261 -1.000000 -0.403804
v -0.167261 1.000000 -0.403804
v 0.067031 1.999253 -0.161827
v -0.000000 1.999253 -0.175160
v 0.123857 1.999253 -0.123857
v 0.161827 1.999253 -0.067031
v 0.175160 1.999253 0.000000
v 0.161827 1.999253 0.067031
v 0.123857 1.999253 0.123857
v 0.067031 1.999253 0.161827
v -0.000000 1.999253 0.175160
v -0.067031 1.999253 0.161827
v -0.123857 1.999253 0.123857
v -0.161827 1.999253 0.067031
v -0.175160 1.999253 0.000000
v -0.161827 1.999253 -0.067031
v -0.123857 1.999253 -0.123857
v -0.067031 1.999253 -0.161827
v 0.067031 2.261468 -0.161827
v -0.000000 2.261468 -0.175160
v 0.123857 2.261468 -0.123857
v 0.161827 2.261468 -0.067031
v 0.175160 2.261468 0.000000
v 0.161827 2.261468 0.067031
v 0.123857 2.261468 0.123857
v 0.067031 2.261468 0.161827
v -0.000000 2.261468 0.175160
v -0.067031 2.261468 0.161827
v -0.123857 2.261468 0.123857
v -0.161827 2.261468 0.067031
v -0.175160 2.261468 0.000000
v -0.161827 2.261468 -0.067031
v -0.123857 2.261468 -0.123857
v -0.067031 2.261468 -0.161827
vn -0.0000 -0.3633 -0.9317
vn -0.0000 0.1163 -0.9932
vn 0.3565 -0.3633 -0.8608
vn 0.3801 0.1163 -0.9176
vn 0.6588 -0.3633 -0.6588
vn 0.7023 0.1163 -0.7023
vn 0.8608 -0.3633 -0.3565
vn 0.9176 0.1163 -0.3801
vn 0.9317 -0.3633 -0.0000
vn 0.9932 0.1163 -0.0000
vn 0.8608 -0.3633 0.3565
vn 0.9176 0.1163 0.3801
vn 0.6588 -0.3633 0.6588
vn 0.7023 0.1163 0.7023
vn 0.3565 -0.3633 0.8608
vn 0.3801 0.1163 0.9176
vn -0.0000 -0.3633 0.9317
vn -0.0000 0.1163 0.9932
vn -0.3565 -0.3633 0.8608
vn -0.3801 0.1163 0.9176
vn -0.6588 -0.3633 0.6588
vn -0.7023 0.1163 0.7023
vn -0.8608 -0.3633 0.3565
vn -0.9176 0.1163 0.3801
vn -0.9317 -0.3633 -0.0000
vn -0.9932 0.1163 -0.0000
vn -0.8608 -0.3633 -0.3565
vn -0.9176 0.1163 -0.3801
vn -0.6588 -0.3633 -0.6588
vn -0.7023 0.1163 -0.7023
vn -0.3565 -0.3633 -0.8608
vn -0.3801 0.1163 -0.9176
vn 0.3797 0.1244 -0.9167
vn -0.0000 0.1244 -0.9922
vn 0.7016 0.1244 -0.7016
vn 0.9167 0.1244 -0.3797
vn 0.9922 0.1244 -0.0000
vn 0.9167 0.1244 0.3797
vn 0.7016 0.1244 0.7016
vn 0.3797 0.1244 0.9167
vn -0.0000 0.1244 0.9922
vn -0.3797 0.1244 0.9167
vn -0.7016 0.1244 0.7016
vn -0.9167 0.1244 0.3797
vn -0.9922 0.1244 -0.0000
vn -0.9167 0.1244 -0.3797
vn -0.7016 0.1244 -0.7016
vn -0.3797 0.1244 -0.9167
vn 0.3565 0.3633 -0.8608
vn -0.0000 0.3633 -0.9317
vn 0.6588 0.3633 -0.6588
vn 0.8608 0.3633 -0.3565
vn 0.9317 0.3633 -0.0000
vn 0.8608 0.3633 0.3565
vn 0.6588 0.3633 0.6588
vn 0.3565 0.3633 0.8608
vn -0.0000 0.3633 0.9317
vn -0.3565 0.3633 0.8608
vn -0.6588 0.3633 0.6588
vn -0.8608 0.3633 0.3565
vn -0.9317 0.3633 -0.0000
vn -0.8608 0.3633 -0.3565
vn -0.6588 0.3633 -0.6588
vn -0.3565 0.3633 -0.8608
vt 1.000000 0.500000
vt 1.000000 1.000000
vt 0.937500 1.000000
vt 0.937500 0.500000
vt 0.875000 1.000000
vt 0.875000 0.500000
vt 0.812500 1.000000
vt 0.812500 0.500000
vt 0.750000 1.000000
vt 0.750000 0.500000
vt 0.687500 1.000000
vt 0.687500 0.500000
vt 0.625000 1.000000
vt 0.625000 0.500000
vt 0.562500 1.000000
vt 0.562500 0.500000
vt 0.500000 1.000000
vt 0.500000 0.500000
vt 0.437500 1.000000
vt 0.437500 0.500000
vt 0.375000 1.000000
vt 0.375000 0.500000
vt 0.312500 1.000000
vt 0.312500 0.500000
vt 0.250000 1.000000
vt 0.250000 0.500000
vt 0.187500 1.000000
vt 0.187500 0.500000
vt 0.125000 1.000000
vt 0.125000 0.500000
vt 0.062500 1.000000
vt 0.062500 0.500000
vt 0.000000 1.000000
vt 0.000000 0.500000
vt 0.750000 0.490000
vt 0.841844 0.471731
vt 0.919706 0.419706
vt 0.971731 0.341844
vt 0.990000 0.250000
vt 0.971731 0.158156
vt 0.919706 0.080294
vt 0.841844 0.028269
vt 0.750000 0.010000
vt 0.658156 0.028269
vt 0.580294 0.080294
vt 0.528269 0.158156
vt 0.510000 0.250000
vt 0.528269 0.341844
vt 0.580294 0.419706
vt 0.658156 0.471731
vt 0.341844 0.471731
vt 0.250000 0.490000
vt 0.158156 0.471731
vt 0.080294 0.419706
vt 0.028269 0.341844
vt 0.010000 0.250000
vt 0.028269 0.158156
vt 0.080294 0.080294
vt 0.158156 0.028269
vt 0.250000 0.010000
vt 0.341844 0.028269
vt 0.419706 0.080294
vt 0.471731 0.158156
vt 0.490000 0.250000
vt 0.471731 0.341844
vt 0.419706 0.419706
s 1
usemtl Material.001
f 1/1/1 2/2/2 4/3/4 3/4/3
f 3/4/3 4/3/4 6/5/6 5/6/5
f 5/6/5 6/5/6 8/7/8 7/8/7
f 7/8/7 8/7/8 10/9/10 9/10/9
f 9/10/9 10/9/10 12/11/12 11/12/11
f 11/12/11 12/11/12 14/13/14 13/14/13
f 13/14/13 14/13/14 16/15/16 15/16/15
f 15/16/15 16/15/16 18/17/18 17/18/17
f 17/18/17 18/17/18 20/19/20 19/20/19
f 19/20/19 20/19/20 22/21/22 21/22/21
f 21/22/21 22/21/22 24/23/24 23/24/23
f 23/24/23 24/23/24 26/25/26 25/26/25
f 25/26/25 26/25/26 28/27/28 27/28/27
f 27/28/27 28/27/28 30/29/30 29/30/29
f 22/21/22 20/19/20 42/19/42 43/21/43
f 29/30/29 30/29/30 32/31/32 31/32/31
f 31/32/31 32/31/32 2/33/2 1/34/1
f 1/35/1 3/36/3 5/37/5 7/38/7 9/39/9 11/40/11 13/41/13 15/42/15 17/43/17 19/44/19 21/45/21 23/46/23 25/47/25 27/48/27 29/49/29 31/50/31
f 45/25/45 44/23/44 60/23/60 61/25/61
f 32/31/32 30/29/30 47/29/47 48/31/48
f 8/7/8 6/5/6 35/5/35 36/7/36
f 18/17/18 16/15/16 40/15/40 41/17/41
f 4/3/4 2/2/2 34/2/34 33/3/33
f 28/27/28 26/25/26 45/25/45 46/27/46
f 14/13/14 12/11/12 38/11/38 39/13/39
f 24/23/24 22/21/22 43/21/43 44/23/44
f 2/33/2 32/31/32 48/31/48 34/33/34
f 10/9/10 8/7/8 36/7/36 37/9/37
f 20/19/20 18/17/18 41/17/41 42/19/42
f 30/29/30 28/27/28 46/27/46 47/29/47
f 6/5/6 4/3/4 33/3/33 35/5/35
f 16/15/16 14/13/14 39/13/39 40/15/40
f 26/25/26 24/23/24 44/23/44 45/25/45
f 12/11/12 10/9/10 37/9/37 38/11/38
f 49/51/49 50/52/50 64/53/64 63/54/63 62/55/62 61/56/61 60/57/60 59/58/59 58/59/58 57/60/57 56/61/56 55/62/55 54/63/54 53/64/53 52/65/52 51/66/51
f 38/11/38 37/9/37 53/9/53 54/11/54
f 46/27/46 45/25/45 61/25/61 62/27/62
f 39/13/39 38/11/38 54/11/54 55/13/55
f 47/29/47 46/27/46 62/27/62 63/29/63
f 40/15/40 39/13/39 55/13/55 56/15/56
f 48/31/48 47/29/47 63/29/63 64/31/64
f 41/17/41 40/15/40 56/15/56 57/17/57
f 33/3/33 34/2/34 50/2/50 49/3/49
f 34/33/34 48/31/48 64/31/64 50/33/50
f 42/19/42 41/17/41 57/17/57 58/19/58
f 35/5/35 33/3/33 49/3/49 51/5/51
f 43/21/43 42/19/42 58/19/58 59/21/59
f 36/7/36 35/5/35 51/5/51 52/7/52
f 44/23/44 43/21/43 59/21/59 60/23/60
f 37/9/37 36/7/36 52/7/52 53/9/53
